#define swings1-small_width 58
#define swings1-small_height 52
static char swings1-small_bits[] = {
 0x00,0x00,0x00,0x00,0x00,0x00,0x00,0xfc,0x00,0x00,0x00,0x00,0x00,0x00,0x00,
 0xfc,0x00,0x00,0x00,0x00,0x00,0x00,0x00,0xfc,0x00,0x00,0x00,0x00,0x00,0x00,
 0x00,0xfc,0x00,0x00,0x00,0x00,0x00,0x00,0x00,0xfc,0x00,0x00,0x80,0x00,0x00,
 0x00,0x00,0xfc,0x00,0x00,0x40,0x00,0x00,0x00,0x00,0xfc,0x00,0x60,0x20,0x01,
 0x00,0x00,0x00,0xfc,0x00,0x60,0x86,0x01,0x00,0x00,0x00,0xfc,0x00,0x00,0x80,
 0x00,0x00,0x00,0x00,0xfc,0x00,0x3c,0x00,0x01,0x00,0x00,0x00,0xfc,0x00,0x1e,
 0x00,0x01,0x00,0x00,0x00,0xfc,0x00,0x00,0x00,0x03,0x00,0x00,0x00,0xfc,0x80,
 0x03,0x00,0x1e,0x00,0x00,0x00,0xfc,0x00,0x00,0x08,0x32,0x00,0x00,0x00,0xfc,
 0x00,0x01,0x00,0x62,0x00,0x00,0x00,0xfc,0xc0,0x00,0x1c,0xc2,0x00,0x00,0x00,
 0xfc,0x30,0x00,0x00,0x42,0x00,0x00,0x00,0xfc,0x88,0x00,0x00,0x40,0x00,0x00,
 0x00,0xfc,0xf8,0x00,0x00,0x00,0x00,0x3f,0x00,0xfc,0x00,0x00,0x00,0x30,0x00,
 0xe1,0x01,0xfc,0x80,0x00,0x00,0x20,0x00,0x10,0x14,0xfc,0x60,0x00,0x00,0x40,
 0x00,0x00,0x60,0xfc,0x18,0x00,0x00,0xc0,0x00,0x01,0xc0,0xfc,0x04,0x00,0x00,
 0x80,0x0c,0x2e,0x80,0xfd,0x22,0x00,0x00,0x00,0xfd,0x1a,0x00,0xfd,0x31,0x00,
 0x00,0x00,0xf0,0x93,0x04,0xfd,0x30,0x00,0x00,0x00,0x90,0xe0,0xc7,0xfd,0x48,
 0x00,0x00,0x00,0x22,0xe4,0x7f,0xfc,0x44,0x00,0x00,0x00,0x26,0xe4,0x01,0xfc,
 0x82,0x00,0x03,0x00,0xab,0xe1,0x03,0xfc,0x00,0x01,0x05,0x80,0x1a,0xe9,0x03,
 0xfc,0x00,0x02,0x00,0x40,0x16,0xe9,0x01,0xfc,0x00,0x84,0x01,0x60,0xfc,0x69,
 0x00,0xfc,0x00,0x10,0x01,0x20,0x16,0x69,0x00,0xfc,0x00,0x00,0x21,0x30,0x36,
 0x3e,0x00,0xfc,0x00,0x00,0x21,0x18,0xfc,0x3f,0x00,0xfc,0x00,0x00,0x11,0x08,
 0xbc,0x00,0x00,0xfc,0x00,0x00,0x1a,0x04,0x44,0x00,0x00,0xfc,0x00,0x00,0x60,
 0x02,0x40,0x0e,0x00,0xfc,0x00,0x00,0x80,0x00,0x48,0x08,0x00,0xfc,0x00,0x00,
 0x00,0x00,0x60,0x00,0x00,0xfc,0x00,0x00,0x00,0x00,0x40,0x05,0x00,0xfc,0x00,
 0x00,0x00,0x00,0x80,0x09,0x00,0xfc,0x00,0x00,0x00,0x00,0x00,0x00,0x00,0xfc,
 0x00,0x00,0x00,0x00,0x00,0x00,0x00,0xfc,0x00,0x00,0x00,0x00,0x00,0x00,0x00,
 0xfc,0x00,0x00,0x00,0x00,0x00,0x00,0x00,0xfc,0x00,0x00,0x00,0x00,0x00,0x00,
 0x00,0xfc,0x00,0x00,0x00,0x00,0x00,0x00,0x00,0xfc,0x00,0x00,0x00,0x00,0x00,
 0x00,0x00,0xfc,0x00,0x00,0x00,0x00,0x00,0x00,0x00,0xfc};
